<svg width="129" height="26" viewBox="0 0 129 26" fill="none" xmlns="http://www.w3.org/2000/svg">
<g clip-path="url(#clip0_3035_8)">
<path d="M102.336 1.33514H111.509V14.9984L121.713 1.33514H126.298L118.777 11.4596L128.631 24.9325H118.3L113.032 17.5216L111.509 19.6164V24.9167H102.336V1.33514Z" fill="#191919"/>
<path d="M87.1016 1.33514H96.2897L96.2739 24.9167H87.1016V1.33514Z" fill="#191919"/>
<path d="M57.4897 1.33514H71.0896C72.8458 1.33514 74.3798 1.52029 75.6916 1.89057C77.014 2.26084 78.1144 2.77924 78.9924 3.44574C79.8811 4.11225 80.5476 4.91099 80.9919 5.84198C81.4363 6.77297 81.6585 7.79918 81.6585 8.9206C81.6585 10.3065 81.3304 11.539 80.6746 12.6181C80.0186 13.6866 79.0453 14.5382 77.7546 15.1731L82.7058 24.9325H72.3432L68.5981 16.3632H66.6621V24.9167H57.4897V1.33514ZM67.2175 13.4909C67.9686 13.4909 68.6405 13.3851 69.2329 13.1736C69.8253 12.9619 70.3279 12.6657 70.7404 12.2848C71.1531 11.8934 71.4705 11.4332 71.6926 10.9042C71.9148 10.3647 72.0259 9.77753 72.0259 9.14276C72.0259 8.508 71.9148 7.92613 71.6926 7.39715C71.4705 6.85761 71.1531 6.3974 70.7404 6.01654C70.3279 5.6251 69.8253 5.32359 69.2329 5.112C68.6405 4.90042 67.9686 4.79462 67.2175 4.79462H66.6779L66.6621 13.4909H67.2175Z" fill="#191919"/>
<path d="M25.7356 13.0783C25.7356 11.2904 26.0212 9.65587 26.5925 8.17475C27.1638 6.68305 28.0155 5.40293 29.1474 4.33442C30.2794 3.26589 31.6918 2.43541 33.3845 1.84295C35.0772 1.25051 37.0449 0.954285 39.2878 0.954285C41.5306 0.954285 43.4984 1.25051 45.1911 1.84295C46.8838 2.43541 48.2962 3.26589 49.4282 4.33442C50.5602 5.40293 51.4118 6.68305 51.9831 8.17475C52.5544 9.65587 52.8401 11.2904 52.8401 13.0783C52.8401 14.8874 52.5544 16.5431 51.9831 18.0453C51.4118 19.5476 50.5602 20.8331 49.4282 21.9016C48.2962 22.97 46.8838 23.8005 45.1911 24.393C43.4984 24.9855 41.5306 25.2817 39.2878 25.2817C37.0449 25.2817 35.0772 24.9855 33.3845 24.393C31.6918 23.8005 30.2794 22.97 29.1474 21.9016C28.0155 20.8331 27.1638 19.5476 26.5925 18.0453C26.0212 16.5431 25.7356 14.8874 25.7356 13.0783ZM39.2878 21.9968C39.9226 21.9968 40.4832 21.8856 40.97 21.6635C41.4566 21.4414 41.8639 21.0076 42.1919 20.3622C42.5198 19.7169 42.7684 18.8123 42.9377 17.6486C43.107 16.4849 43.1916 14.9614 43.1916 13.0783C43.1916 11.2163 43.107 9.70876 42.9377 8.5556C42.7684 7.40245 42.5198 6.50848 42.1919 5.87372C41.8639 5.23896 41.4566 4.81049 40.97 4.58832C40.4832 4.36615 39.9226 4.25506 39.2878 4.25506C38.653 4.25506 38.087 4.36615 37.5898 4.58832C37.1031 4.81049 36.6958 5.23896 36.3679 5.87372C36.0399 6.50848 35.7913 7.40245 35.622 8.5556C35.4528 9.70876 35.3682 11.2163 35.3682 13.0783C35.3682 14.9614 35.4528 16.4849 35.622 17.6486C35.7913 18.8123 36.0399 19.7169 36.3679 20.3622C36.6958 21.0076 37.1031 21.4414 37.5898 21.6635C38.087 21.8856 38.653 21.9968 39.2878 21.9968Z" fill="#191919"/>
<path d="M11.0725 4.79462H1.64624V1.33514H23.1965L12.5008 21.4254H22.2761V24.9167H0.0117188L11.0725 4.79462Z" fill="#191919"/>
</g>
<defs>
<clipPath id="clip0_3035_8">
<rect width="128.917" height="26" fill="white"/>
</clipPath>
</defs>
</svg>
