<svg width="129" height="26" viewBox="0 0 129 26" fill="none" xmlns="http://www.w3.org/2000/svg">
<g clip-path="url(#clip0_4416_2)">
<path d="M102.336 1.33594H111.509V14.9992L121.713 1.33594H126.298L118.777 11.4604L128.631 24.9333H118.3L113.032 17.5224L111.509 19.6172V24.9175H102.336V1.33594Z" fill="white"/>
<path d="M87.1016 1.33594H96.2897L96.2739 24.9175H87.1016V1.33594Z" fill="white"/>
<path d="M57.4897 1.33594H71.0896C72.8458 1.33594 74.3798 1.52108 75.6916 1.89136C77.014 2.26164 78.1144 2.78003 78.9924 3.44653C79.8811 4.11304 80.5476 4.91178 80.9919 5.84278C81.4363 6.77376 81.6585 7.79997 81.6585 8.92139C81.6585 10.3073 81.3304 11.5398 80.6746 12.6189C80.0186 13.6874 79.0453 14.539 77.7546 15.1739L82.7058 24.9333H72.3432L68.5981 16.364H66.6621V24.9175H57.4897V1.33594ZM67.2175 13.4917C67.9686 13.4917 68.6405 13.3859 69.2329 13.1744C69.8253 12.9627 70.3279 12.6665 70.7404 12.2856C71.1531 11.8942 71.4705 11.434 71.6926 10.905C71.9148 10.3655 72.0259 9.77832 72.0259 9.14355C72.0259 8.5088 71.9148 7.92693 71.6926 7.39795C71.4705 6.8584 71.1531 6.39819 70.7404 6.01734C70.3279 5.62589 69.8253 5.32438 69.2329 5.1128C68.6405 4.90121 67.9686 4.79541 67.2175 4.79541H66.6779L66.6621 13.4917H67.2175Z" fill="white"/>
<path d="M25.7354 13.0791C25.7354 11.2912 26.0209 9.65666 26.5923 8.17554C27.1635 6.68384 28.0152 5.40372 29.1472 4.33521C30.2792 3.26668 31.6915 2.4362 33.3842 1.84375C35.0769 1.25131 37.0447 0.955078 39.2875 0.955078C41.5304 0.955078 43.4981 1.25131 45.1908 1.84375C46.8835 2.4362 48.296 3.26668 49.428 4.33521C50.5599 5.40372 51.4115 6.68384 51.9829 8.17554C52.5541 9.65666 52.8398 11.2912 52.8398 13.0791C52.8398 14.8882 52.5541 16.5439 51.9829 18.0461C51.4115 19.5484 50.5599 20.8339 49.428 21.9023C48.296 22.9708 46.8835 23.8013 45.1908 24.3938C43.4981 24.9863 41.5304 25.2825 39.2875 25.2825C37.0447 25.2825 35.0769 24.9863 33.3842 24.3938C31.6915 23.8013 30.2792 22.9708 29.1472 21.9023C28.0152 20.8339 27.1635 19.5484 26.5923 18.0461C26.0209 16.5439 25.7354 14.8882 25.7354 13.0791ZM39.2875 21.9976C39.9224 21.9976 40.483 21.8864 40.9697 21.6643C41.4564 21.4421 41.8637 21.0084 42.1916 20.363C42.5195 19.7177 42.7682 18.8131 42.9375 17.6494C43.1067 16.4857 43.1913 14.9622 43.1913 13.0791C43.1913 11.2171 43.1067 9.70955 42.9375 8.5564C42.7682 7.40324 42.5195 6.50927 42.1916 5.87452C41.8637 5.23975 41.4564 4.81128 40.9697 4.58911C40.483 4.36694 39.9224 4.25586 39.2875 4.25586C38.6528 4.25586 38.0868 4.36694 37.5895 4.58911C37.1029 4.81128 36.6955 5.23975 36.3676 5.87452C36.0397 6.50927 35.7911 7.40324 35.6217 8.5564C35.4525 9.70955 35.3679 11.2171 35.3679 13.0791C35.3679 14.9622 35.4525 16.4857 35.6217 17.6494C35.7911 18.8131 36.0397 19.7177 36.3676 20.363C36.6955 21.0084 37.1029 21.4421 37.5895 21.6643C38.0868 21.8864 38.6528 21.9976 39.2875 21.9976Z" fill="white"/>
<path d="M11.0725 4.79541H1.64624V1.33594H23.1965L12.5008 21.4262H22.2761V24.9175H0.0117188L11.0725 4.79541Z" fill="white"/>
</g>
<defs>
<clipPath id="clip0_4416_2">
<rect width="128.917" height="26" fill="white"/>
</clipPath>
</defs>
</svg>
