<svg width="154" height="27" viewBox="0 0 154 27" fill="none" xmlns="http://www.w3.org/2000/svg">
<g clip-path="url(#clip0_3480_2)">
<path d="M0.24707 0.605469H12.4663C14.7222 0.594076 16.6647 0.793457 18.2939 1.20362C19.9346 1.60238 21.2847 2.17774 22.3442 2.92969C23.4038 3.68164 24.1842 4.58741 24.6855 5.64698C25.1982 6.69515 25.4546 7.86296 25.4546 9.15039C25.4546 10.2783 25.2153 11.3607 24.7368 12.3975C24.2697 13.4229 23.5405 14.3286 22.5493 15.1148C21.5695 15.9009 20.3162 16.5275 18.7896 16.9947C17.2743 17.4618 15.4684 17.6953 13.3721 17.6953H10.125V26.001H0.24707V0.605469ZM10.125 13.9698C10.9111 13.9584 11.6118 13.8387 12.2271 13.6109C12.8423 13.3716 13.3607 13.0469 13.7822 12.6367C14.2038 12.2152 14.5228 11.7139 14.7393 11.1328C14.9671 10.5404 15.0811 9.87956 15.0811 9.15039C15.0811 8.43262 14.9671 7.78321 14.7393 7.20215C14.5114 6.6211 14.181 6.12549 13.748 5.71534C13.3265 5.29379 12.8081 4.96338 12.1929 4.72412C11.589 4.48487 10.8997 4.35384 10.125 4.33106V13.9698ZM28.0522 13.252C28.0522 11.3265 28.3599 9.56625 28.9751 7.97119C29.5903 6.36475 30.5075 4.98617 31.7266 3.83545C32.9456 2.68474 34.4666 1.79037 36.2896 1.15235C38.1125 0.514323 40.2316 0.195312 42.647 0.195312C45.0623 0.195312 47.1815 0.514323 49.0044 1.15235C50.8273 1.79037 52.3483 2.68474 53.5674 3.83545C54.7865 4.98617 55.7036 6.36475 56.3188 7.97119C56.9341 9.56625 57.2417 11.3265 57.2417 13.252C57.2417 15.2002 56.9341 16.9833 56.3188 18.6011C55.7036 20.2189 54.7865 21.6032 53.5674 22.7539C52.3483 23.9046 50.8273 24.799 49.0044 25.437C47.1815 26.0751 45.0623 26.3941 42.647 26.3941C40.2316 26.3941 38.1125 26.0751 36.2896 25.437C34.4666 24.799 32.9456 23.9046 31.7266 22.7539C30.5075 21.6032 29.5903 20.2189 28.9751 18.6011C28.3599 16.9833 28.0522 15.2002 28.0522 13.252ZM42.647 22.8565C43.3306 22.8565 43.9344 22.7368 44.4585 22.4976C44.9826 22.2583 45.4212 21.7912 45.7744 21.0962C46.1276 20.4012 46.3953 19.4271 46.5776 18.1739C46.7599 16.9206 46.8511 15.28 46.8511 13.252C46.8511 11.2468 46.7599 9.62321 46.5776 8.38135C46.3953 7.13949 46.1276 6.17676 45.7744 5.49317C45.4212 4.80957 44.9826 4.34815 44.4585 4.10889C43.9344 3.86963 43.3306 3.75 42.647 3.75C41.9634 3.75 41.3538 3.86963 40.8184 4.10889C40.2943 4.34815 39.8556 4.80957 39.5024 5.49317C39.1493 6.17676 38.8815 7.13949 38.6992 8.38135C38.5169 9.62321 38.4258 11.2468 38.4258 13.252C38.4258 15.28 38.5169 16.9206 38.6992 18.1739C38.8815 19.4271 39.1493 20.4012 39.5024 21.0962C39.8556 21.7912 40.2943 22.2583 40.8184 22.4976C41.3538 22.7368 41.9634 22.8565 42.647 22.8565ZM62.249 0.605469H83.7139V4.51905H72.144L72.127 11.3721H80.9795V15.2857H72.127V22.0874H83.7139V26.001H62.249V0.605469ZM93.2671 4.50196H86.021V0.588378H110.391V4.50196H103.145V26.001H93.2671V4.50196ZM114.1 0.605469H123.995L123.978 26.001H114.1V0.605469ZM129.019 13.3203C129.019 12.1127 129.173 10.9505 129.48 9.83399C129.799 8.70606 130.261 7.65788 130.865 6.68946C131.469 5.72103 132.209 4.83806 133.086 4.04053C133.964 3.243 134.961 2.55941 136.077 1.98975C137.205 1.42009 138.447 0.981445 139.803 0.673828C141.159 0.354817 142.617 0.195312 144.178 0.195312C145.18 0.195312 146.137 0.257976 147.049 0.383301C147.972 0.508627 148.838 0.685222 149.646 0.913086C150.455 1.12956 151.202 1.38591 151.885 1.68213C152.58 1.96696 153.207 2.26888 153.765 2.58789L152.295 5.45899C151.657 5.15137 150.928 4.89502 150.108 4.68994C149.299 4.47347 148.456 4.36524 147.579 4.36524C146.405 4.36524 145.317 4.57601 144.314 4.99756C143.312 5.41911 142.446 6.01726 141.717 6.792C140.988 7.56674 140.412 8.50668 139.991 9.61182C139.581 10.7056 139.375 11.9361 139.375 13.3032C139.375 14.659 139.581 15.8895 139.991 16.9947C140.401 18.0884 140.965 19.0283 141.683 19.8145C142.412 20.5892 143.272 21.1931 144.263 21.626C145.266 22.0475 146.348 22.2583 147.51 22.2583C148.331 22.2583 149.151 22.1615 149.971 21.9678C150.792 21.7627 151.543 21.495 152.227 21.1646L153.697 24.0357C153.139 24.3661 152.518 24.6737 151.834 24.9585C151.15 25.2434 150.41 25.4997 149.612 25.7276C148.815 25.944 147.96 26.1149 147.049 26.2403C146.137 26.3656 145.18 26.4282 144.178 26.4282C141.842 26.4282 139.734 26.0864 137.854 25.4029C135.986 24.7079 134.397 23.7679 133.086 22.583C131.776 21.3867 130.768 19.9968 130.062 18.4131C129.367 16.8181 129.019 15.1205 129.019 13.3203Z" fill="white"/>
</g>
<defs>
<clipPath id="clip0_3480_2">
<rect width="154" height="27" fill="white"/>
</clipPath>
</defs>
</svg>
