<svg width="26" height="26" viewBox="0 0 26 26" fill="none" xmlns="http://www.w3.org/2000/svg">
<g clip-path="url(#clip0_842_462)">
<path d="M13 0.8125C10.5895 0.8125 8.23322 1.52728 6.22899 2.86646C4.22477 4.20564 2.66267 6.10907 1.74022 8.33605C0.817781 10.563 0.576427 13.0135 1.04668 15.3777C1.51694 17.7418 2.67769 19.9134 4.38214 21.6179C6.08659 23.3223 8.2582 24.4831 10.6223 24.9533C12.9865 25.4236 15.437 25.1822 17.664 24.2598C19.8909 23.3373 21.7944 21.7752 23.1335 19.771C24.4727 17.7668 25.1875 15.4105 25.1875 13C25.1835 9.7689 23.8982 6.67127 21.6135 4.38653C19.3287 2.10179 16.2311 0.816478 13 0.8125ZM15.3359 21.2469C15.315 21.4909 15.2031 21.7182 15.0226 21.8837C14.842 22.0492 14.6059 22.1409 14.3609 22.1406H11.6391C11.3941 22.1409 11.158 22.0492 10.9774 21.8837C10.7969 21.7182 10.685 21.4909 10.6641 21.2469L10.1847 15.7503C10.166 15.525 10.1942 15.2982 10.2676 15.0843C10.3409 14.8704 10.4579 14.674 10.6109 14.5076C10.764 14.3411 10.9499 14.2082 11.157 14.1173C11.364 14.0263 11.5876 13.9792 11.8138 13.9791H14.1863C14.4124 13.9792 14.636 14.0263 14.8431 14.1173C15.0501 14.2082 15.236 14.3411 15.3891 14.5076C15.5422 14.674 15.6591 14.8704 15.7324 15.0843C15.8058 15.2982 15.834 15.525 15.8153 15.7503L15.3359 21.2469ZM9.56719 16.1403L9.64438 17.0341C8.65044 16.3233 7.90788 15.3152 7.52373 14.1552C7.13959 12.9952 7.13371 11.7432 7.50694 10.5797C7.88017 9.41614 8.61324 8.40116 9.60046 7.68106C10.5877 6.96097 11.7781 6.57295 13 6.57295C14.2219 6.57295 15.4123 6.96097 16.3996 7.68106C17.3868 8.40116 18.1198 9.41614 18.4931 10.5797C18.8663 11.7432 18.8604 12.9952 18.4763 14.1552C18.0921 15.3152 17.3496 16.3233 16.3556 17.0341L16.4328 16.1403C17.1987 15.4469 17.7367 14.5377 17.9758 13.5325C18.215 12.5274 18.1441 11.4734 17.7725 10.5093C17.4009 9.5452 16.746 8.71627 15.8941 8.13163C15.0422 7.547 14.0332 7.23408 13 7.23408C11.9668 7.23408 10.9578 7.547 10.1059 8.13163C9.25401 8.71627 8.59915 9.5452 8.22755 10.5093C7.85596 11.4734 7.78506 12.5274 8.02419 13.5325C8.26332 14.5377 8.80127 15.4469 9.56719 16.1403ZM15.0922 10.985C15.093 11.399 14.971 11.8039 14.7416 12.1485C14.5122 12.4931 14.1857 12.7618 13.8035 12.9208C13.4212 13.0798 13.0004 13.1218 12.5943 13.0415C12.1882 12.9613 11.8151 12.7623 11.522 12.4699C11.229 12.1775 11.0294 11.8047 10.9483 11.3987C10.8673 10.9928 10.9085 10.5719 11.0667 10.1894C11.2249 9.80682 11.4931 9.47983 11.8372 9.24976C12.1814 9.01968 12.586 8.89688 13 8.89688C13.5542 8.89687 14.0857 9.11674 14.478 9.50823C14.8702 9.89971 15.0911 10.4308 15.0922 10.985ZM16.0753 20.2556L16.1403 19.5244C17.7893 18.8031 19.1398 17.5362 19.9648 15.9366C20.7898 14.337 21.0391 12.5021 20.6706 10.7404C20.3022 8.97868 19.3386 7.39746 17.9417 6.26249C16.5448 5.12751 14.7998 4.50797 13 4.50797C11.2002 4.50797 9.45518 5.12751 8.0583 6.26249C6.66142 7.39746 5.6978 8.97868 5.32938 10.7404C4.96096 12.5021 5.21019 14.337 6.03519 15.9366C6.8602 17.5362 8.21068 18.8031 9.85969 19.5244L9.92469 20.2556C8.07987 19.5384 6.54378 18.1988 5.58219 16.4687C4.62061 14.7386 4.294 12.7268 4.65889 10.7814C5.02378 8.83597 6.0572 7.07927 7.58038 5.81522C9.10355 4.55118 11.0206 3.85931 13 3.85931C14.9794 3.85931 16.8965 4.55118 18.4196 5.81522C19.9428 7.07927 20.9762 8.83597 21.3411 10.7814C21.706 12.7268 21.3794 14.7386 20.4178 16.4687C19.4562 18.1988 17.9201 19.5384 16.0753 20.2556Z" fill="url(#paint0_linear_842_462)"/>
</g>
<defs>
<linearGradient id="paint0_linear_842_462" x1="0.812505" y1="13" x2="25.1875" y2="13" gradientUnits="userSpaceOnUse">
<stop stop-color="#7F00FF"/>
<stop offset="1" stop-color="#E100FF"/>
</linearGradient>
<clipPath id="clip0_842_462">
<rect width="26" height="26" fill="white"/>
</clipPath>
</defs>
</svg>
