<svg width="18" height="18" viewBox="0 0 18 18" fill="none" xmlns="http://www.w3.org/2000/svg">
<g clip-path="url(#clip0_1696_9)">
<path d="M9 0.5625C7.33122 0.5625 5.69992 1.05735 4.31238 1.98448C2.92484 2.9116 1.84338 4.22936 1.20477 5.77111C0.566156 7.31286 0.399065 9.00936 0.724628 10.6461C1.05019 12.2828 1.85378 13.7862 3.03379 14.9662C4.2138 16.1462 5.71722 16.9498 7.35393 17.2754C8.99065 17.6009 10.6871 17.4338 12.2289 16.7952C13.7706 16.1566 15.0884 15.0752 16.0155 13.6876C16.9427 12.3001 17.4375 10.6688 17.4375 9C17.4348 6.76308 16.5449 4.61857 14.9632 3.03683C13.3814 1.45509 11.2369 0.565254 9 0.5625ZM10.6172 14.7094C10.6027 14.8783 10.5252 15.0357 10.4002 15.1503C10.2752 15.2649 10.1118 15.3283 9.94219 15.3281H8.05782C7.88824 15.3283 7.72477 15.2649 7.59977 15.1503C7.47476 15.0357 7.39734 14.8783 7.38282 14.7094L7.05094 10.9041C7.038 10.748 7.05754 10.591 7.10833 10.443C7.15912 10.2949 7.24005 10.1589 7.34603 10.0437C7.45201 9.92847 7.58072 9.83647 7.72405 9.77349C7.86738 9.71052 8.0222 9.67794 8.17875 9.67781H9.82125C9.97781 9.67794 10.1326 9.71052 10.276 9.77349C10.4193 9.83647 10.548 9.92847 10.654 10.0437C10.76 10.1589 10.8409 10.2949 10.8917 10.443C10.9425 10.591 10.962 10.748 10.9491 10.9041L10.6172 14.7094ZM6.62344 11.1741L6.67688 11.7928C5.98877 11.3007 5.47468 10.6028 5.20874 9.79978C4.94279 8.99671 4.93872 8.12993 5.19711 7.3244C5.4555 6.51886 5.96301 5.81619 6.64647 5.31766C7.32993 4.81913 8.15404 4.5505 9 4.5505C9.84597 4.5505 10.6701 4.81913 11.3535 5.31766C12.037 5.81619 12.5445 6.51886 12.8029 7.3244C13.0613 8.12993 13.0572 8.99671 12.7913 9.79978C12.5253 10.6028 12.0112 11.3007 11.3231 11.7928L11.3766 11.1741C11.9068 10.694 12.2792 10.0646 12.4448 9.36867C12.6104 8.67279 12.5613 7.94309 12.304 7.27565C12.0468 6.60821 11.5934 6.03434 11.0036 5.62959C10.4138 5.22485 9.71531 5.00821 9 5.00821C8.2847 5.00821 7.58617 5.22485 6.9964 5.62959C6.40662 6.03434 5.95326 6.60821 5.696 7.27565C5.43874 7.94309 5.38966 8.67279 5.55521 9.36867C5.72076 10.0646 6.09319 10.694 6.62344 11.1741ZM10.4484 7.605C10.449 7.89159 10.3645 8.17191 10.2057 8.41047C10.0469 8.64904 9.82087 8.83513 9.55625 8.94519C9.29163 9.05525 9.00031 9.08433 8.71916 9.02876C8.438 8.97319 8.17965 8.83546 7.9768 8.63301C7.77395 8.43055 7.63572 8.17247 7.57961 7.89143C7.52349 7.61038 7.55201 7.319 7.66156 7.05417C7.7711 6.78934 7.95675 6.56296 8.195 6.40368C8.43326 6.2444 8.71341 6.15938 9 6.15938C9.38367 6.15937 9.75166 6.31159 10.0232 6.58262C10.2948 6.85365 10.4477 7.22134 10.4484 7.605ZM11.1291 14.0231L11.1741 13.5169C12.3157 13.0176 13.2506 12.1405 13.8218 11.033C14.393 9.92561 14.5655 8.65533 14.3104 7.43567C14.0554 6.21601 13.3883 5.12132 12.4212 4.33557C11.4541 3.54982 10.246 3.1209 9 3.1209C7.75396 3.1209 6.54589 3.54982 5.57882 4.33557C4.61175 5.12132 3.94463 6.21601 3.68957 7.43567C3.43451 8.65533 3.60705 9.92561 4.17821 11.033C4.74937 12.1405 5.68432 13.0176 6.82594 13.5169L6.87094 14.0231C5.59375 13.5266 4.53031 12.5992 3.8646 11.4014C3.19888 10.2037 2.97277 8.81089 3.22539 7.46405C3.478 6.11721 4.19345 4.90103 5.24795 4.02593C6.30246 3.15082 7.62968 2.67183 9 2.67183C10.3703 2.67183 11.6976 3.15082 12.7521 4.02593C13.8066 4.90103 14.522 6.11721 14.7746 7.46405C15.0272 8.81089 14.8011 10.2037 14.1354 11.4014C13.4697 12.5992 12.4063 13.5266 11.1291 14.0231Z" fill="url(#paint0_linear_1696_9)"/>
</g>
<defs>
<linearGradient id="paint0_linear_1696_9" x1="0.562504" y1="9" x2="17.4375" y2="9" gradientUnits="userSpaceOnUse">
<stop stop-color="#7F00FF"/>
<stop offset="1" stop-color="#E100FF"/>
</linearGradient>
<clipPath id="clip0_1696_9">
<rect width="18" height="18" fill="white"/>
</clipPath>
</defs>
</svg>
