<svg width="30" height="30" viewBox="0 0 30 30" fill="none" xmlns="http://www.w3.org/2000/svg">
<g clip-path="url(#clip0_2383_759)">
<path d="M15 0.9375C12.2187 0.9375 9.49987 1.76225 7.1873 3.30746C4.87473 4.85267 3.07231 7.04893 2.00795 9.61851C0.943593 12.1881 0.665109 15.0156 1.20771 17.7435C1.75032 20.4713 3.08964 22.977 5.05632 24.9437C7.02299 26.9104 9.52869 28.2497 12.2565 28.7923C14.9844 29.3349 17.8119 29.0564 20.3815 27.9921C22.9511 26.9277 25.1473 25.1253 26.6925 22.8127C28.2378 20.5001 29.0625 17.7813 29.0625 15C29.0579 11.2718 27.5749 7.69762 24.9386 5.06138C22.3024 2.42514 18.7282 0.94209 15 0.9375ZM17.6953 24.5156C17.6711 24.7972 17.5421 25.0595 17.3337 25.2504C17.1254 25.4414 16.8529 25.5472 16.5703 25.5469H13.4297C13.1471 25.5472 12.8746 25.4414 12.6663 25.2504C12.4579 25.0595 12.3289 24.7972 12.3047 24.5156L11.7516 18.1734C11.73 17.9134 11.7626 17.6517 11.8472 17.4049C11.9319 17.1581 12.0668 16.9315 12.2434 16.7395C12.42 16.5475 12.6345 16.3941 12.8734 16.2892C13.1123 16.1842 13.3703 16.1299 13.6313 16.1297H16.3688C16.6297 16.1299 16.8877 16.1842 17.1266 16.2892C17.3655 16.3941 17.58 16.5475 17.7566 16.7395C17.9333 16.9315 18.0682 17.1581 18.1528 17.4049C18.2375 17.6517 18.27 17.9134 18.2484 18.1734L17.6953 24.5156ZM11.0391 18.6234L11.1281 19.6547C9.98128 18.8345 9.12447 17.6714 8.68123 16.333C8.23798 14.9945 8.2312 13.5499 8.66185 12.2073C9.09251 10.8648 9.93835 9.69364 11.0775 8.86276C12.2166 8.03188 13.5901 7.58417 15 7.58417C16.4099 7.58417 17.7835 8.03188 18.9226 8.86276C20.0617 9.69364 20.9075 10.8648 21.3382 12.2073C21.7688 13.5499 21.762 14.9945 21.3188 16.333C20.8755 17.6714 20.0187 18.8345 18.8719 19.6547L18.9609 18.6234C19.8447 17.8233 20.4654 16.7743 20.7413 15.6145C21.0173 14.4547 20.9354 13.2385 20.5067 12.1261C20.0779 11.0137 19.3223 10.0572 18.3394 9.38265C17.3564 8.70807 16.1922 8.34701 15 8.34701C13.8078 8.34701 12.6436 8.70807 11.6607 9.38265C10.6777 10.0572 9.92209 11.0137 9.49333 12.1261C9.06457 13.2385 8.98276 14.4547 9.25868 15.6145C9.5346 16.7743 10.1553 17.8233 11.0391 18.6234ZM17.4141 12.675C17.415 13.1527 17.2742 13.6198 17.0095 14.0175C16.7448 14.4151 16.3681 14.7252 15.9271 14.9086C15.4861 15.0921 15.0005 15.1406 14.5319 15.0479C14.0633 14.9553 13.6328 14.7258 13.2947 14.3883C12.9566 14.0509 12.7262 13.6208 12.6327 13.1524C12.5392 12.684 12.5867 12.1983 12.7693 11.757C12.9518 11.3156 13.2612 10.9383 13.6583 10.6728C14.0554 10.4073 14.5224 10.2656 15 10.2656C15.6394 10.2656 16.2528 10.5193 16.7054 10.971C17.1579 11.4227 17.4128 12.0356 17.4141 12.675ZM18.5484 23.3719L18.6234 22.5281C20.5261 21.6959 22.0844 20.2341 23.0363 18.3884C23.9883 16.5427 24.2758 14.4255 23.8507 12.3928C23.4256 10.36 22.3138 8.53553 20.702 7.22595C19.0902 5.91636 17.0767 5.2015 15 5.2015C12.9233 5.2015 10.9098 5.91636 9.29804 7.22595C7.68626 8.53553 6.57439 10.36 6.14928 12.3928C5.72418 14.4255 6.01176 16.5427 6.96368 18.3884C7.91561 20.2341 9.47386 21.6959 11.3766 22.5281L11.4516 23.3719C9.32292 22.5443 7.55052 20.9986 6.44099 19.0024C5.33147 17.0061 4.95462 14.6848 5.37564 12.4401C5.79667 10.1953 6.98908 8.16839 8.74659 6.70987C10.5041 5.25136 12.7161 4.45305 15 4.45305C17.2839 4.45305 19.4959 5.25136 21.2534 6.70987C23.0109 8.16839 24.2033 10.1953 24.6244 12.4401C25.0454 14.6848 24.6685 17.0061 23.559 19.0024C22.4495 20.9986 20.6771 22.5443 18.5484 23.3719Z" fill="url(#paint0_linear_2383_759)"/>
</g>
<defs>
<linearGradient id="paint0_linear_2383_759" x1="0.937506" y1="15" x2="29.0625" y2="15" gradientUnits="userSpaceOnUse">
<stop stop-color="#7F00FF"/>
<stop offset="1" stop-color="#E100FF"/>
</linearGradient>
<clipPath id="clip0_2383_759">
<rect width="30" height="30" fill="white"/>
</clipPath>
</defs>
</svg>
