<svg width="30" height="30" viewBox="0 0 30 30" fill="none" xmlns="http://www.w3.org/2000/svg">
<rect width="30" height="30" rx="5" fill="url(#paint0_linear_2383_807)"/>
<g clip-path="url(#clip0_2383_807)">
<circle cx="15.002" cy="15" r="9" fill="#F8F8F8"/>
<path d="M15.002 4C8.92514 4 4.00195 8.92319 4.00195 15C4.00195 21.0768 8.92514 26 15.002 26C21.0788 26 26.002 21.0768 26.002 15C26.002 8.92319 21.0788 4 15.002 4ZM14.9985 16.826C12.4926 16.826 12.4926 13.0633 14.9985 13.0633C17.5086 13.0633 17.5086 16.826 14.9985 16.826ZM19.578 21.2734L17.7334 18.7166C21.3792 16.0519 19.4886 10.2831 14.9772 10.2906C10.4617 10.3016 8.59652 16.0773 12.252 18.7269L10.404 21.2872C7.65739 19.2996 6.5017 15.77 7.54327 12.5429C8.58895 9.32056 11.5933 7.13294 14.9841 7.13638C19.2995 7.13638 22.7975 10.6344 22.7975 14.9491C22.801 17.4523 21.6047 19.8049 19.578 21.2734Z" fill="#191919"/>
</g>
<defs>
<linearGradient id="paint0_linear_2383_807" x1="15" y1="0" x2="15" y2="30" gradientUnits="userSpaceOnUse">
<stop stop-color="#02C9B2"/>
<stop offset="1" stop-color="#00B873"/>
</linearGradient>
<clipPath id="clip0_2383_807">
<rect width="22" height="22" fill="white" transform="translate(4.00195 4)"/>
</clipPath>
</defs>
</svg>
