<svg width="30" height="30" viewBox="0 0 30 30" fill="none" xmlns="http://www.w3.org/2000/svg">
<g clip-path="url(#clip0_2383_762)">
<path d="M3.75 13.9772V16.0227C3.75 17.0583 2.91053 17.8977 1.875 17.8977C0.839473 17.8977 0 17.0583 0 16.0227V13.9772C0 12.9417 0.839473 12.1022 1.875 12.1022C2.91053 12.1022 3.75 12.9417 3.75 13.9772Z" fill="#0066D9"/>
<path d="M26.2508 14.0306C26.2503 14.0128 26.25 13.995 26.25 13.9772C26.25 12.9417 27.0895 12.1022 28.125 12.1022C29.1605 12.1022 30 12.9417 30 13.9772C30 13.995 29.9998 14.0129 29.9992 14.0306H30V16.076H29.9992C29.9711 17.0869 29.1427 17.8977 28.125 17.8977C27.1073 17.8977 26.2789 17.0869 26.2508 16.076H26.25V14.0305H26.2508V14.0306Z" fill="#4285F4"/>
<path d="M10.2275 20.1136V22.159C10.2275 23.1945 9.38812 24.034 8.35254 24.034C7.31695 24.034 6.47754 23.1945 6.47754 22.159V20.1135C6.47754 19.078 7.31701 18.2385 8.35254 18.2385C9.38807 18.2385 10.2275 19.078 10.2275 20.1135V20.1136ZM10.2275 7.84082V14.5312H10.2271C10.2045 15.547 9.37383 16.3636 8.35254 16.3636C7.33125 16.3636 6.50068 15.547 6.47807 14.5312H6.47754V7.84082C6.47754 6.80529 7.31701 5.96582 8.35254 5.96582C9.38807 5.96582 10.2275 6.80529 10.2275 7.84082Z" fill="#EA4335"/>
<path d="M19.7725 9.88627C19.7725 10.9218 20.6119 11.7613 21.6475 11.7613C22.683 11.7613 23.5225 10.9218 23.5225 9.88627V7.84082C23.5225 6.80529 22.683 5.96582 21.6475 5.96582C20.6119 5.96582 19.7725 6.80529 19.7725 7.84082V9.88627Z" fill="#34A853"/>
<path d="M13.125 3.92051C13.125 4.95598 13.9645 5.79551 15 5.79551C16.0355 5.79551 16.875 4.95598 16.875 3.92051V1.875C16.875 0.839473 16.0355 0 15 0C13.9645 0 13.125 0.839473 13.125 1.875V3.92051ZM13.125 26.0795C13.125 25.044 13.9645 24.2045 15 24.2045C16.0355 24.2045 16.875 25.044 16.875 26.0795V28.125C16.875 29.1605 16.0355 30 15 30C13.9645 30 13.125 29.1605 13.125 28.125V26.0795Z" fill="#FAB908"/>
<path d="M19.7725 15.5112C19.7725 14.4757 20.6119 13.6362 21.6475 13.6362C22.683 13.6362 23.5225 14.4757 23.5225 15.5112V22.159C23.5225 23.1945 22.683 24.034 21.6475 24.034C20.6119 24.034 19.7725 23.1945 19.7725 22.159V15.5112Z" fill="#34A853"/>
<path d="M16.875 9.5455V20.4545C16.875 21.4901 16.0355 22.3295 15 22.3295C13.9645 22.3295 13.125 21.4901 13.125 20.4545V9.5455C13.125 8.50992 13.9645 7.6705 15 7.6705C16.0355 7.6705 16.875 8.50992 16.875 9.5455Z" fill="#FAB908"/>
</g>
<defs>
<clipPath id="clip0_2383_762">
<rect width="30" height="30" fill="white"/>
</clipPath>
</defs>
</svg>
