<svg width="30" height="30" viewBox="0 0 30 30" fill="none" xmlns="http://www.w3.org/2000/svg">
<g clip-path="url(#clip0_2383_747)">
<path d="M15.0001 29.6486C23.0902 29.6486 29.6486 23.0902 29.6486 15.0001C29.6486 6.90993 23.0902 0.351562 15.0001 0.351562C6.90993 0.351562 0.351562 6.90993 0.351562 15.0001C0.351562 23.0902 6.90993 29.6486 15.0001 29.6486Z" fill="url(#paint0_linear_2383_747)"/>
<path d="M12.0831 18.654C12.0831 18.5568 12.0445 18.4637 11.9758 18.395C11.9072 18.3263 11.814 18.2877 11.7169 18.2877C11.6197 18.2877 11.5266 18.3263 11.4579 18.395C11.3892 18.4637 11.3506 18.5568 11.3506 18.654C11.3506 20.3805 12.3032 21.4879 13.5226 21.9748C13.9915 22.162 14.4972 22.2556 15 22.2556C15.5027 22.2556 16.0083 22.1622 16.4771 21.9748C17.6965 21.4881 18.6492 20.3805 18.6492 18.654C18.6471 18.5583 18.6076 18.4671 18.5391 18.4002C18.4707 18.3332 18.3787 18.2957 18.283 18.2957C18.1872 18.2957 18.0953 18.3332 18.0268 18.4002C17.9584 18.4671 17.9189 18.5583 17.9168 18.654C17.9168 20.0336 17.1675 20.9139 16.2083 21.2968C15.8301 21.4478 15.4164 21.5234 14.9998 21.5234C14.5833 21.5234 14.1697 21.4478 13.7915 21.2968C12.8324 20.9139 12.0831 20.0336 12.0831 18.654Z" fill="white"/>
<path fill-rule="evenodd" clip-rule="evenodd" d="M15.0003 11.4863C16.3062 11.4863 17.4125 12.4841 17.5469 13.7826H16.5933V14.2011H17.5604V15.2537H16.603V15.6724H17.5604V16.725H16.603V17.1435H17.5604V18.1962H16.5933V18.6147H17.5469C17.4137 19.9002 16.3194 20.9111 15.0003 20.9111C13.6946 20.9111 12.5885 19.9131 12.4541 18.6147H13.4031V18.196H12.4404V17.1435H13.4076V16.7248H12.4404V15.6722H13.4076V15.2537H12.4404V14.2011H13.4031V13.7824H12.4539C12.587 12.4973 13.6813 11.4863 15.0003 11.4863Z" fill="white"/>
<path fill-rule="evenodd" clip-rule="evenodd" d="M15.0001 5.58313C19.322 5.58313 22.1141 8.8318 22.3449 12.9137C22.3838 13.6014 21.3414 13.6616 21.3025 12.9725C21.1037 9.44444 18.7663 6.62709 15.0003 6.62709C11.2343 6.62709 8.89656 9.44444 8.69759 12.9725C8.65884 13.6615 7.61643 13.6013 7.65536 12.9137C7.88616 8.8318 10.6782 5.58313 15.0001 5.58313Z" fill="white"/>
<path fill-rule="evenodd" clip-rule="evenodd" d="M15 8.64141C17.8736 8.64141 19.5231 10.7311 19.7285 13.3508C19.7821 14.0382 18.7409 14.1199 18.6878 13.4316C18.5283 11.3607 17.3239 9.68537 15 9.68537C12.6761 9.68537 11.4716 11.3608 11.312 13.4316C11.2589 14.1201 10.2177 14.0377 10.2715 13.3507C10.4767 10.7311 12.1262 8.64141 15 8.64141Z" fill="white"/>
<path d="M15.3662 22.1568V23.2865H14.6338V22.1568H15.3662Z" fill="white"/>
<path d="M16.6164 23.2233H13.385C13.0553 23.2233 12.7881 23.4905 12.7881 23.8202C12.7881 24.1498 13.0553 24.4171 13.385 24.4171H16.6164C16.946 24.4171 17.2132 24.1498 17.2132 23.8202C17.2132 23.4905 16.946 23.2233 16.6164 23.2233Z" fill="white"/>
</g>
<defs>
<linearGradient id="paint0_linear_2383_747" x1="4.45319" y1="25.547" x2="25.547" y2="4.45319" gradientUnits="userSpaceOnUse">
<stop stop-color="#8A2387"/>
<stop offset="0.471" stop-color="#E94057"/>
<stop offset="1" stop-color="#F27121"/>
</linearGradient>
<clipPath id="clip0_2383_747">
<rect width="30" height="30" fill="white"/>
</clipPath>
</defs>
</svg>
