<svg width="30" height="30" viewBox="0 0 30 30" fill="none" xmlns="http://www.w3.org/2000/svg">
<g clip-path="url(#clip0_2383_812)">
<path d="M15 30C23.2843 30 30 23.2843 30 15C30 6.71573 23.2843 0 15 0C6.71573 0 0 6.71573 0 15C0 23.2843 6.71573 30 15 30Z" fill="#EC4837"/>
<path d="M13.0072 12.3094C13.19 12.3094 13.3307 12.4547 13.3307 12.6328C13.3307 12.8109 13.19 12.9562 13.0072 12.9562H10.9447V14.9906C10.9447 17.2266 12.7635 19.0406 14.9994 19.0406C17.2354 19.0406 19.0494 17.2219 19.0494 14.9906V12.9562H16.9869C16.8088 12.9562 16.6635 12.8109 16.6635 12.6328C16.6635 12.4547 16.8088 12.3094 16.9869 12.3094H19.0635C19.0539 12.2791 19.0491 12.2474 19.0494 12.2156V11.4188H16.9869C16.8088 11.4188 16.6635 11.2781 16.6635 11.0953C16.6635 10.9172 16.8088 10.7719 16.9869 10.7719H19.0494V9.88594H16.9869C16.8088 9.88594 16.6635 9.74062 16.6635 9.5625C16.6635 9.38437 16.8088 9.23906 16.9869 9.23906H19.0494V9.21094C19.0494 8.91094 19.0166 8.625 18.9604 8.34375H16.9869C16.8088 8.34375 16.6635 8.20313 16.6635 8.02031C16.6635 7.84219 16.8088 7.69688 16.9869 7.69688H18.7588C18.1588 6.21094 16.701 5.15625 14.9994 5.15625C13.2979 5.15625 11.84 6.21094 11.24 7.69688H13.0072C13.19 7.69688 13.3307 7.84219 13.3307 8.02031C13.3307 8.20313 13.19 8.34375 13.0072 8.34375H11.0432C10.9775 8.62031 10.9447 8.91094 10.9447 9.21094V9.23906H13.0072C13.19 9.23906 13.3307 9.38437 13.3307 9.5625C13.3307 9.74062 13.19 9.88594 13.0072 9.88594H10.9447V10.7719H13.0072C13.19 10.7719 13.3307 10.9172 13.3307 11.0953C13.3307 11.2781 13.19 11.4188 13.0072 11.4188H10.9447V12.2156C10.9447 12.2484 10.94 12.2813 10.9307 12.3094H10.9447H13.0072Z" fill="#F8F8F8"/>
<path d="M21.3799 13.1203H19.6361V14.2453H20.2736V14.9484C20.2736 17.4328 18.5064 19.6078 16.0783 20.1187C15.7174 20.1937 15.3518 20.2266 14.9955 20.2266C14.6393 20.2266 14.283 20.189 13.9221 20.1187C11.4893 19.6125 9.72207 17.4422 9.72207 14.9484V14.2453H10.3596V13.1203H8.61582C8.52009 13.1203 8.42829 13.1583 8.3606 13.226C8.29291 13.2937 8.25488 13.3855 8.25488 13.4812V13.8844C8.25488 14.0812 8.41426 14.2453 8.61582 14.2453H8.97676V14.9484C8.97676 17.7141 10.8471 20.1187 13.5236 20.789C13.7064 20.8359 13.908 20.8781 14.1189 20.9062V22.0219H15.8861V20.9062C16.0877 20.8781 16.2893 20.8406 16.4768 20.789C19.1533 20.1094 21.0236 17.7094 21.0236 14.9484V14.2453H21.3846C21.5814 14.2453 21.7455 14.0859 21.7455 13.8844V13.4812C21.7436 13.3853 21.7043 13.2939 21.636 13.2265C21.5677 13.1591 21.4758 13.121 21.3799 13.1203ZM19.9549 24.0984H10.0408C9.83457 24.0984 9.67051 24.2672 9.67051 24.4687C9.67051 24.675 9.83926 24.8391 10.0408 24.8391H19.9549C20.1611 24.8391 20.3252 24.6703 20.3252 24.4687C20.3255 24.42 20.3161 24.3717 20.2976 24.3267C20.2791 24.2816 20.2519 24.2406 20.2174 24.2062C20.183 24.1717 20.142 24.1445 20.097 24.126C20.0519 24.1075 20.0036 24.0981 19.9549 24.0984ZM12.5674 22.6594L11.9627 23.4515H18.033L17.433 22.6594H12.5674Z" fill="#F8F8F8"/>
</g>
<defs>
<clipPath id="clip0_2383_812">
<rect width="30" height="30" fill="white"/>
</clipPath>
</defs>
</svg>
