<svg width="26" height="26" viewBox="0 0 26 26" fill="none" xmlns="http://www.w3.org/2000/svg">
<rect width="26" height="26" rx="5" fill="url(#paint0_linear_858_22)"/>
<g clip-path="url(#clip0_858_22)">
<circle cx="13.0002" cy="13" r="7.8" fill="#F8F8F8"/>
<path d="M13.0001 3.46667C7.73356 3.46667 3.4668 7.73344 3.4668 13C3.4668 18.2666 7.73356 22.5333 13.0001 22.5333C18.2667 22.5333 22.5335 18.2666 22.5335 13C22.5335 7.73344 18.2667 3.46667 13.0001 3.46667ZM12.9972 14.5825C10.8253 14.5825 10.8253 11.3215 12.9972 11.3215C15.1725 11.3215 15.1725 14.5825 12.9972 14.5825ZM16.966 18.437L15.3674 16.2211C18.5271 13.9116 16.8885 8.912 12.9787 8.91855C9.06525 8.92808 7.44875 13.9337 10.6168 16.23L9.0152 18.4489C6.63484 16.7264 5.63325 13.6673 6.53593 10.8705C7.4422 8.07783 10.046 6.18189 12.9846 6.18487C16.7247 6.18487 19.7563 9.21647 19.7563 12.9559C19.7593 15.1253 18.7225 17.1643 16.966 18.437Z" fill="#191919"/>
</g>
<defs>
<linearGradient id="paint0_linear_858_22" x1="13" y1="0" x2="13" y2="26" gradientUnits="userSpaceOnUse">
<stop stop-color="#02C9B2"/>
<stop offset="1" stop-color="#00B873"/>
</linearGradient>
<clipPath id="clip0_858_22">
<rect width="19.0667" height="19.0667" fill="white" transform="translate(3.4668 3.46667)"/>
</clipPath>
</defs>
</svg>
