<svg width="26" height="26" viewBox="0 0 26 26" fill="none" xmlns="http://www.w3.org/2000/svg">
<g clip-path="url(#clip0_857_8)">
<path d="M13 26C20.1797 26 26 20.1797 26 13C26 5.8203 20.1797 0 13 0C5.8203 0 0 5.8203 0 13C0 20.1797 5.8203 26 13 26Z" fill="#EC4837"/>
<path d="M11.2733 10.6681C11.4318 10.6681 11.5536 10.7941 11.5536 10.9484C11.5536 11.1028 11.4318 11.2287 11.2733 11.2287H9.48582V12.9919C9.48582 14.9297 11.0621 16.5019 12.9999 16.5019C14.9377 16.5019 16.5099 14.9256 16.5099 12.9919V11.2287H14.7224C14.568 11.2287 14.4421 11.1028 14.4421 10.9484C14.4421 10.7941 14.568 10.6681 14.7224 10.6681H16.5221C16.5138 10.6419 16.5096 10.6144 16.5099 10.5869V9.89625H14.7224C14.568 9.89625 14.4421 9.77437 14.4421 9.61594C14.4421 9.46156 14.568 9.33562 14.7224 9.33562H16.5099V8.56781H14.7224C14.568 8.56781 14.4421 8.44187 14.4421 8.2875C14.4421 8.13312 14.568 8.00719 14.7224 8.00719H16.5099V7.98281C16.5099 7.72281 16.4814 7.475 16.4327 7.23125H14.7224C14.568 7.23125 14.4421 7.10938 14.4421 6.95094C14.4421 6.79656 14.568 6.67062 14.7224 6.67062H16.258C15.738 5.38281 14.4746 4.46875 12.9999 4.46875C11.5252 4.46875 10.2618 5.38281 9.74176 6.67062H11.2733C11.4318 6.67062 11.5536 6.79656 11.5536 6.95094C11.5536 7.10938 11.4318 7.23125 11.2733 7.23125H9.57113C9.51426 7.47094 9.48582 7.72281 9.48582 7.98281V8.00719H11.2733C11.4318 8.00719 11.5536 8.13312 11.5536 8.2875C11.5536 8.44187 11.4318 8.56781 11.2733 8.56781H9.48582V9.33562H11.2733C11.4318 9.33562 11.5536 9.46156 11.5536 9.61594C11.5536 9.77437 11.4318 9.89625 11.2733 9.89625H9.48582V10.5869C9.48582 10.6153 9.48176 10.6438 9.47363 10.6681H9.48582H11.2733Z" fill="#F8F8F8"/>
<path d="M18.5293 11.371H17.018V12.346H17.5705V12.9553C17.5705 15.1085 16.039 16.9935 13.9346 17.4363C13.6218 17.5013 13.3049 17.5297 12.9962 17.5297C12.6874 17.5297 12.3787 17.4972 12.0659 17.4363C9.95742 16.9975 8.42586 15.1166 8.42586 12.9553V12.346H8.97836V11.371H7.46711C7.38415 11.371 7.30458 11.4039 7.24592 11.4626C7.18725 11.5213 7.1543 11.6008 7.1543 11.6838V12.0332C7.1543 12.2038 7.29242 12.346 7.46711 12.346H7.77992V12.9553C7.77992 15.3522 9.40086 17.4363 11.7205 18.0172C11.879 18.0578 12.0537 18.0944 12.2365 18.1188V19.0857H13.768V18.1188C13.9427 18.0944 14.1174 18.0619 14.2799 18.0172C16.5996 17.4282 18.2205 15.3482 18.2205 12.9553V12.346H18.5334C18.704 12.346 18.8462 12.2078 18.8462 12.0332V11.6838C18.8445 11.6006 18.8104 11.5215 18.7513 11.463C18.6921 11.4046 18.6124 11.3716 18.5293 11.371ZM17.2943 20.8853H8.70211C8.52336 20.8853 8.38117 21.0316 8.38117 21.2063C8.38117 21.385 8.52742 21.5272 8.70211 21.5272H17.2943C17.473 21.5272 17.6152 21.381 17.6152 21.2063C17.6155 21.1641 17.6074 21.1222 17.5914 21.0831C17.5753 21.0441 17.5517 21.0086 17.5218 20.9787C17.492 20.9489 17.4565 20.9253 17.4174 20.9092C17.3784 20.8932 17.3365 20.8851 17.2943 20.8853ZM10.8918 19.6382L10.3677 20.3247H15.6287L15.1087 19.6382H10.8918Z" fill="#F8F8F8"/>
</g>
<defs>
<clipPath id="clip0_857_8">
<rect width="26" height="26" fill="white"/>
</clipPath>
</defs>
</svg>
