<svg width="24" height="24" viewBox="0 0 24 24" fill="none" xmlns="http://www.w3.org/2000/svg">
<g clip-path="url(#clip0_860_156)">
<path d="M3 11.1818V12.8182C3 13.6466 2.32842 14.3182 1.5 14.3182C0.671578 14.3182 0 13.6466 0 12.8182V11.1818C0 10.3533 0.671578 9.68176 1.5 9.68176C2.32842 9.68176 3 10.3533 3 11.1818Z" fill="#0066D9"/>
<path d="M21.0006 11.2244C21.0002 11.2102 21 11.196 21 11.1818C21 10.3533 21.6716 9.68176 22.5 9.68176C23.3284 9.68176 24 10.3533 24 11.1818C24 11.196 23.9998 11.2103 23.9994 11.2244H24V12.8608H23.9994C23.9769 13.6695 23.3142 14.3181 22.5 14.3181C21.6858 14.3181 21.0232 13.6695 21.0006 12.8608H21V11.2244H21.0006V11.2244Z" fill="#4285F4"/>
<path d="M8.18164 16.0909V17.7273C8.18164 18.5557 7.51011 19.2273 6.68164 19.2273C5.85317 19.2273 5.18164 18.5557 5.18164 17.7273V16.0909C5.18164 15.2625 5.85322 14.5909 6.68164 14.5909C7.51006 14.5909 8.18164 15.2625 8.18164 16.0909V16.0909ZM8.18164 6.2727V11.625H8.18127C8.16317 12.4377 7.49867 13.0909 6.68164 13.0909C5.86461 13.0909 5.20016 12.4377 5.18206 11.625H5.18164V6.2727C5.18164 5.44428 5.85322 4.77271 6.68164 4.77271C7.51006 4.77271 8.18164 5.44428 8.18164 6.2727Z" fill="#EA4335"/>
<path d="M15.8184 7.90907C15.8184 8.73749 16.4899 9.40907 17.3184 9.40907C18.1468 9.40907 18.8184 8.73749 18.8184 7.90907V6.2727C18.8184 5.44428 18.1468 4.77271 17.3184 4.77271C16.4899 4.77271 15.8184 5.44428 15.8184 6.2727V7.90907Z" fill="#34A853"/>
<path d="M10.5 3.13641C10.5 3.96478 11.1716 4.63641 12 4.63641C12.8284 4.63641 13.5 3.96478 13.5 3.13641V1.5C13.5 0.671578 12.8284 0 12 0C11.1716 0 10.5 0.671578 10.5 1.5V3.13641ZM10.5 20.8636C10.5 20.0352 11.1716 19.3636 12 19.3636C12.8284 19.3636 13.5 20.0352 13.5 20.8636V22.5C13.5 23.3284 12.8284 24 12 24C11.1716 24 10.5 23.3284 10.5 22.5V20.8636Z" fill="#FAB908"/>
<path d="M15.8184 12.4091C15.8184 11.5806 16.4899 10.9091 17.3184 10.9091C18.1468 10.9091 18.8184 11.5806 18.8184 12.4091V17.7273C18.8184 18.5557 18.1468 19.2273 17.3184 19.2273C16.4899 19.2273 15.8184 18.5557 15.8184 17.7273V12.4091Z" fill="#34A853"/>
<path d="M13.5 7.63635V16.3635C13.5 17.192 12.8284 17.8635 12 17.8635C11.1716 17.8635 10.5 17.192 10.5 16.3635V7.63635C10.5 6.80788 11.1716 6.13635 12 6.13635C12.8284 6.13635 13.5 6.80788 13.5 7.63635Z" fill="#FAB908"/>
</g>
<defs>
<clipPath id="clip0_860_156">
<rect width="24" height="24" fill="white"/>
</clipPath>
</defs>
</svg>
