<svg width="26" height="26" viewBox="0 0 26 26" fill="none" xmlns="http://www.w3.org/2000/svg">
<path d="M13.0001 25.6955C20.0115 25.6955 25.6955 20.0115 25.6955 13.0001C25.6955 5.98861 20.0115 0.304688 13.0001 0.304688C5.98861 0.304688 0.304688 5.98861 0.304688 13.0001C0.304688 20.0115 5.98861 25.6955 13.0001 25.6955Z" fill="url(#paint0_linear_845_493)"/>
<path d="M10.4728 16.1666C10.4728 16.0824 10.4393 16.0016 10.3798 15.9421C10.3203 15.8826 10.2395 15.8491 10.1553 15.8491C10.0711 15.8491 9.99039 15.8826 9.93086 15.9421C9.87133 16.0016 9.83789 16.0824 9.83789 16.1666C9.83789 17.6629 10.6635 18.6227 11.7203 19.0446C12.1266 19.2068 12.5649 19.288 13.0007 19.288C13.4364 19.288 13.8746 19.207 14.2809 19.0446C15.3377 18.6228 16.1633 17.6629 16.1633 16.1666C16.1615 16.0836 16.1273 16.0046 16.068 15.9466C16.0086 15.8885 15.929 15.856 15.846 15.856C15.763 15.856 15.6833 15.8885 15.624 15.9466C15.5646 16.0046 15.5304 16.0836 15.5286 16.1666C15.5286 17.3622 14.8792 18.1251 14.0479 18.457C13.7201 18.5879 13.3616 18.6534 13.0005 18.6534C12.6396 18.6534 12.2811 18.5879 11.9533 18.457C11.1222 18.1251 10.4728 17.3622 10.4728 16.1666Z" fill="#F8F8F8"/>
<path fill-rule="evenodd" clip-rule="evenodd" d="M12.9998 9.95523C14.1316 9.95523 15.0904 10.82 15.2069 11.9453H14.3804V12.308H15.2186V13.2203H14.3888V13.5831H15.2186V14.4954H14.3888V14.8581H15.2186V15.7704H14.3804V16.1331H15.2069C15.0914 17.2472 14.143 18.1233 12.9998 18.1233C11.8682 18.1233 10.9096 17.2584 10.7931 16.1331H11.6155V15.7702H10.7812V14.8581H11.6194V14.4953H10.7812V13.583H11.6194V13.2203H10.7812V12.308H11.6155V11.9451H10.7929C10.9083 10.8314 11.8567 9.95523 12.9998 9.95523Z" fill="#F8F8F8"/>
<path fill-rule="evenodd" clip-rule="evenodd" d="M13.0002 4.83887C16.7458 4.83887 19.1656 7.65438 19.3656 11.192C19.3994 11.7881 18.496 11.8402 18.4622 11.243C18.2899 8.18534 16.2642 5.74363 13.0003 5.74363C9.73647 5.74363 7.71042 8.18534 7.53798 11.243C7.50439 11.8401 6.60097 11.7879 6.63471 11.192C6.83474 7.65438 9.25455 4.83887 13.0002 4.83887Z" fill="#F8F8F8"/>
<path fill-rule="evenodd" clip-rule="evenodd" d="M13.0001 7.48929C15.4906 7.48929 16.9201 9.30032 17.0981 11.5708C17.1446 12.1665 16.2422 12.2373 16.1962 11.6408C16.058 9.84597 15.0142 8.39405 13.0001 8.39405C10.9861 8.39405 9.94216 9.84612 9.80391 11.6408C9.75787 12.2374 8.8555 12.1661 8.90214 11.5706C9.07997 9.30032 10.5095 7.48929 13.0001 7.48929Z" fill="#F8F8F8"/>
<path d="M13.3173 19.2026V20.1818H12.6826V19.2026H13.3173Z" fill="#F8F8F8"/>
<path d="M14.4008 20.127H11.6003C11.3146 20.127 11.083 20.3586 11.083 20.6443C11.083 20.93 11.3146 21.1616 11.6003 21.1616H14.4008C14.6865 21.1616 14.9181 20.93 14.9181 20.6443C14.9181 20.3586 14.6865 20.127 14.4008 20.127Z" fill="#F8F8F8"/>
<defs>
<linearGradient id="paint0_linear_845_493" x1="3.85943" y1="22.1407" x2="22.1407" y2="3.85943" gradientUnits="userSpaceOnUse">
<stop stop-color="#8A2387"/>
<stop offset="0.471" stop-color="#E94057"/>
<stop offset="1" stop-color="#F27121"/>
</linearGradient>
</defs>
</svg>
