<svg width="18" height="18" viewBox="0 0 18 18" fill="none" xmlns="http://www.w3.org/2000/svg">
<g clip-path="url(#clip0_1696_27)">
<path d="M9.00005 17.7892C13.8541 17.7892 17.7892 13.8541 17.7892 9.00005C17.7892 4.14596 13.8541 0.210938 9.00005 0.210938C4.14596 0.210938 0.210938 4.14596 0.210938 9.00005C0.210938 13.8541 4.14596 17.7892 9.00005 17.7892Z" fill="url(#paint0_linear_1696_27)"/>
<path d="M7.25007 11.1922C7.25007 11.1339 7.22692 11.078 7.1857 11.0368C7.14449 10.9956 7.08859 10.9724 7.03031 10.9724C6.97202 10.9724 6.91613 10.9956 6.87491 11.0368C6.8337 11.078 6.81055 11.1339 6.81055 11.1922C6.81055 12.2281 7.38211 12.8925 8.11375 13.1847C8.39507 13.297 8.6985 13.3531 9.00017 13.3531C9.30184 13.3531 9.60516 13.2971 9.88648 13.1847C10.6181 12.8927 11.1897 12.2281 11.1897 11.1922C11.1884 11.1347 11.1647 11.0801 11.1237 11.0399C11.0826 10.9997 11.0274 10.9772 10.97 10.9772C10.9125 10.9772 10.8573 10.9997 10.8163 11.0399C10.7752 11.0801 10.7515 11.1347 10.7503 11.1922C10.7503 12.0199 10.3007 12.5481 9.72516 12.7778C9.49824 12.8685 9.25003 12.9138 9.00007 12.9138C8.7502 12.9138 8.50199 12.8685 8.27507 12.7778C7.69966 12.5481 7.25007 12.0199 7.25007 11.1922Z" fill="#F8F8F8"/>
<path fill-rule="evenodd" clip-rule="evenodd" d="M8.99981 6.89207C9.78335 6.89207 10.4471 7.49073 10.5278 8.26981H9.95557V8.52092H10.5359V9.15249H9.96138V9.40371H10.5359V10.0353H9.96138V10.2864H10.5359V10.918H9.95557V11.1691H10.5278C10.4478 11.9404 9.79124 12.5469 8.99981 12.5469C8.21637 12.5469 7.55273 11.9481 7.47207 11.1691H8.04146V10.9178H7.46387V10.2864H8.04415V10.0352H7.46387V9.4036H8.04415V9.15249H7.46387V8.52092H8.04146V8.26971H7.47196C7.55179 7.49862 8.20838 6.89207 8.99981 6.89207Z" fill="#F8F8F8"/>
<path fill-rule="evenodd" clip-rule="evenodd" d="M9.00027 3.34998C11.5934 3.34998 13.2686 5.29918 13.4071 7.74832C13.4305 8.16096 12.805 8.19708 12.7817 7.78362C12.6624 5.66676 11.26 3.97635 9.00037 3.97635C6.74078 3.97635 5.33813 5.66676 5.21875 7.78362C5.1955 8.19698 4.57005 8.16085 4.59341 7.74832C4.73189 5.29918 6.40715 3.34998 9.00027 3.34998Z" fill="#F8F8F8"/>
<path fill-rule="evenodd" clip-rule="evenodd" d="M9.00039 5.18492C10.7245 5.18492 11.7142 6.43871 11.8375 8.01057C11.8696 8.423 11.2449 8.472 11.2131 8.05905C11.1173 6.81647 10.3947 5.8113 9.00039 5.8113C7.60604 5.8113 6.88333 6.81657 6.78762 8.05905C6.75575 8.4721 6.13103 8.42269 6.16332 8.01047C6.28643 6.43871 7.27614 5.18492 9.00039 5.18492Z" fill="#F8F8F8"/>
<path d="M9.21969 13.2941V13.9719H8.78027V13.2941H9.21969Z" fill="#F8F8F8"/>
<path d="M9.96981 13.9341H8.03099C7.83319 13.9341 7.67285 14.0944 7.67285 14.2922C7.67285 14.49 7.83319 14.6504 8.03099 14.6504H9.96981C10.1676 14.6504 10.3279 14.49 10.3279 14.2922C10.3279 14.0944 10.1676 13.9341 9.96981 13.9341Z" fill="#F8F8F8"/>
</g>
<defs>
<linearGradient id="paint0_linear_1696_27" x1="2.67191" y1="15.3282" x2="15.3282" y2="2.67191" gradientUnits="userSpaceOnUse">
<stop stop-color="#8A2387"/>
<stop offset="0.471" stop-color="#E94057"/>
<stop offset="1" stop-color="#F27121"/>
</linearGradient>
<clipPath id="clip0_1696_27">
<rect width="18" height="18" fill="white"/>
</clipPath>
</defs>
</svg>
