<svg width="26" height="26" viewBox="0 0 26 26" fill="none" xmlns="http://www.w3.org/2000/svg">
<g clip-path="url(#clip0_842_443)">
<path d="M13 0C5.82006 0 0 5.82006 0 13C0 20.1799 5.82006 26 13 26C20.1799 26 26 20.1799 26 13C26 5.82095 20.1799 0.000887069 13 0ZM18.962 18.7491C18.7287 19.1323 18.2293 19.2521 17.8478 19.0188C14.7954 17.1533 10.9526 16.7319 6.4277 17.7653C5.99127 17.8656 5.5566 17.5924 5.45725 17.1559C5.35701 16.7195 5.62934 16.2848 6.06667 16.1855C11.0183 15.0545 15.2665 15.5415 18.6932 17.6349C19.0747 17.87 19.1962 18.3677 18.962 18.7491ZM20.5525 15.2106C20.2589 15.6878 19.6344 15.8368 19.158 15.5441C15.6648 13.3965 10.337 12.7747 6.20416 14.029C5.66837 14.1913 5.10242 13.8888 4.9392 13.3539C4.77776 12.8182 5.08025 12.2531 5.61515 12.0899C10.3361 10.6573 16.2059 11.3509 20.2181 13.817C20.6953 14.1106 20.8461 14.7342 20.5525 15.2106ZM20.6891 11.5239C16.4986 9.03569 9.58656 8.80682 5.58588 10.0203C4.94364 10.2155 4.26414 9.85268 4.06987 9.21044C3.87561 8.5682 4.23753 7.88871 4.88066 7.69355C9.47301 6.29997 17.1062 6.56875 21.9301 9.43221C22.5076 9.7755 22.6974 10.5215 22.355 11.0981C22.0135 11.6765 21.2657 11.8672 20.6891 11.5239Z" fill="#2EBD59"/>
</g>
<defs>
<clipPath id="clip0_842_443">
<rect width="26" height="26" fill="white"/>
</clipPath>
</defs>
</svg>
